<svg width="0" height="0" class="hidden">
  <symbol fill="none" xmlns="http://www.w3.org/2000/svg" viewBox="0 0 12 13" id="Union">
    <path fill-rule="evenodd" clip-rule="evenodd" d="M2 0C0.895431 0 0 0.89543 0 2V8C0 9.10457 0.895431 10 2 10H3V11.0098C3 11.8667 4.00736 12.327 4.65493 11.7657L6.69231 10H10C11.1046 10 12 9.10457 12 8V2C12 0.895431 11.1046 0 10 0H2ZM6 8C6.55228 8 7 7.55228 7 7C7 6.44772 6.55228 6 6 6H3C2.44772 6 2 6.44772 2 7C2 7.55228 2.44772 8 3 8H4H6ZM3 2C2.44772 2 2 2.44772 2 3C2 3.55228 2.44772 4 3 4H9C9.55229 4 10 3.55228 10 3C10 2.44772 9.55229 2 9 2H3Z" fill="#BAC5D2"></path>
  </symbol>
  <symbol fill="none" xmlns="http://www.w3.org/2000/svg" viewBox="0 0 14 10" id="Group">
    <path fill-rule="evenodd" clip-rule="evenodd" d="M8.40039 4.74582C8.78178 4.08487 8.99999 3.31792 8.99999 2.5C8.99999 1.68208 8.78178 0.915128 8.40039 0.254184C8.73223 0.0914008 9.10544 0 9.49999 0C10.8807 0 12 1.11929 12 2.5C12 3.88071 10.8807 5 9.49999 5C9.10544 5 8.73223 4.9086 8.40039 4.74582Z" fill="#BAC5D2"></path>
    <circle cx="4.5" cy="2.5" r="2.5" fill="#BAC5D2"></circle>
    <path fill-rule="evenodd" clip-rule="evenodd" d="M11.0575 10H13.4286C13.7442 10 14 9.74416 14 9.42857C14 7.53502 12.465 6 10.5714 6H8.99622C10.2292 6.91545 11.03 8.37232 11.0575 10Z" fill="#BAC5D2"></path>
    <path d="M0 9.42857C0 7.53502 1.53502 6 3.42857 6H5.57143C7.46498 6 9 7.53502 9 9.42857V9.42857C9 9.74416 8.74416 10 8.42857 10H0.571429C0.255837 10 0 9.74416 0 9.42857V9.42857Z" fill="#BAC5D2"></path>
  </symbol>
  <symbol fill="none" xmlns="http://www.w3.org/2000/svg" viewBox="0 0 12 12" id="Subtract">
    <path fill-rule="evenodd" clip-rule="evenodd" d="M10.6287 6C10.6287 6.36351 10.767 6.72096 11.0553 6.94245L11.8784 7.575C12.0019 7.665 12.0327 7.8225 11.9556 7.9575L10.7213 10.035C10.6441 10.17 10.4821 10.2225 10.3432 10.17L9.35217 9.78266C9.01341 9.65025 8.63908 9.70575 8.32325 9.88617C7.99363 10.0745 7.73291 10.3865 7.67823 10.7622L7.53518 11.745C7.51975 11.895 7.3886 12 7.23432 12H4.76569C4.6114 12 4.48796 11.895 4.45711 11.745L4.31388 10.761C4.25931 10.3861 4.00244 10.077 3.67311 9.88968C3.35638 9.70954 2.97822 9.65051 2.63884 9.78315L1.64904 10.17C1.51018 10.215 1.34818 10.17 1.27103 10.035L0.0367173 7.9575C-0.0327129 7.83 -0.00185513 7.665 0.113862 7.575L0.949747 6.94027C1.23756 6.72172 1.37132 6.36138 1.37132 6C1.37132 5.63821 1.24507 5.27812 0.95693 5.05933L0.121577 4.425C-0.00185495 4.335 -0.0327129 4.1775 0.0444317 4.0425L1.27875 1.965C1.35589 1.83 1.51789 1.7775 1.65676 1.83L2.64783 2.21734C2.98659 2.34975 3.36093 2.29425 3.67675 2.11383C4.00637 1.92553 4.26709 1.61346 4.32177 1.2378L4.46482 0.255C4.48797 0.105 4.6114 0 4.76569 0H7.23432C7.3886 0 7.51975 0.105 7.54289 0.255L7.68612 1.239C7.74069 1.61392 7.99756 1.92301 8.32689 2.11032C8.64362 2.29046 9.02178 2.34949 9.36116 2.21685L10.351 1.83C10.4898 1.785 10.6518 1.83 10.729 1.965L11.9633 4.0425C12.0327 4.17 12.0019 4.335 11.8861 4.425L11.0503 5.05972C10.7625 5.27827 10.6287 5.63861 10.6287 6ZM6 8C7.10457 8 8 7.10457 8 6C8 4.89543 7.10457 4 6 4C4.89543 4 4 4.89543 4 6C4 7.10457 4.89543 8 6 8Z" fill="#BAC5D2"></path>
  </symbol>
</svg>
