<svg width="0" height="0" class="hidden">
  <symbol fill="none" xmlns="http://www.w3.org/2000/svg" viewBox="0 0 40 40" id="Doc">
    <path d="M12 11C12 10.4477 12.4477 10 13 10H27C27.5523 10 28 10.4477 28 11C28 11.5523 27.5523 12 27 12H13C12.4477 12 12 11.5523 12 11Z" fill="#BAC5D2"></path>
    <rect x="12" y="14" width="16" height="2" rx="1" fill="#BAC5D2"></rect>
    <rect x="12" y="18" width="12" height="2" rx="1" fill="#BAC5D2"></rect>
    <rect x="12" y="22" width="6" height="2" rx="1" fill="#BAC5D2"></rect>
    <path fill-rule="evenodd" clip-rule="evenodd" d="M22.4891 33.0145C22.4885 33.0109 22.4879 33.0073 22.4873 33.0037ZM20.5221 33.3784L20.8139 35.1615L22.7876 34.8384L22.4891 33.0145M20.5221 33.3784L20.5154 33.3376L20.508 33.2923C20.2613 31.7856 20.0661 30.5927 19.9899 29.6271C19.9123 28.643 19.9476 27.793 20.2294 26.9971C20.7208 25.6095 21.7051 24.451 22.9951 23.7419C23.735 23.3352 24.5682 23.1631 25.5519 23.0807C26.5171 23 27.7259 23 29.2527 23L32.0003 23L32.0003 25L29.2985 25C27.7157 25 26.5906 25.0008 25.7187 25.0738C24.8555 25.146 24.3435 25.283 23.9585 25.4946C23.0985 25.9673 22.4423 26.7397 22.1147 27.6647C21.9681 28.0788 21.9156 28.6063 21.9837 29.4698C22.0524 30.3401 22.2326 31.4474 22.4873 33.0037" fill="#BAC5D2"></path>
    <path fill-rule="evenodd" clip-rule="evenodd" d="M24.34 6H15.66C13.918 6 12.7337 6.00161 11.8189 6.07758C10.928 6.15156 10.4733 6.2856 10.1561 6.45035C9.42553 6.82985 8.82985 7.42553 8.45035 8.1561C8.2856 8.47326 8.15156 8.92803 8.07758 9.81891C8.00161 10.7337 8 11.918 8 13.66V26.34C8 28.082 8.00161 29.2663 8.07758 30.1811C8.15156 31.072 8.2856 31.5267 8.45035 31.8439C8.82985 32.5745 9.42553 33.1702 10.1561 33.5497C10.4733 33.7144 10.928 33.8484 11.8189 33.9224C12.7337 33.9984 13.918 34 15.66 34H21.0705C21.9298 34 22.0215 33.9862 22.0851 33.9704C22.1861 33.9453 22.2827 33.9045 22.3711 33.8496C22.4268 33.815 22.5006 33.7589 23.0996 33.1427L31.1991 24.8118C31.7752 24.2192 31.8274 24.1472 31.8597 24.0928C31.911 24.0064 31.949 23.9128 31.9725 23.8151C31.9872 23.7536 32 23.6656 32 22.8391V13.66C32 11.918 31.9984 10.7337 31.9224 9.81891C31.8484 8.92803 31.7144 8.47326 31.5497 8.1561C31.1702 7.42553 30.5745 6.82985 29.8439 6.45035C29.5267 6.2856 29.072 6.15156 28.1811 6.07758C27.2663 6.00161 26.082 6 24.34 6ZM6.67552 7.23415C6 8.53458 6 10.2431 6 13.66V26.34C6 29.7569 6 31.4654 6.67552 32.7658C7.24477 33.8617 8.13829 34.7552 9.23415 35.3245C10.5346 36 12.2431 36 15.66 36H21.0705C21.831 36 22.2112 36 22.5679 35.9113C22.8711 35.8358 23.1607 35.7135 23.4261 35.5487C23.7384 35.3548 24.0035 35.0822 24.5336 34.5369L24.5336 34.5369L32.6331 26.206C33.1431 25.6814 33.3981 25.4191 33.5792 25.1143C33.7331 24.8552 33.8471 24.5744 33.9174 24.2813C34 23.9366 34 23.5707 34 22.8391V13.66C34 10.2431 34 8.53458 33.3245 7.23415C32.7552 6.13829 31.8617 5.24477 30.7658 4.67552C29.4654 4 27.7569 4 24.34 4H15.66C12.2431 4 10.5346 4 9.23415 4.67552C8.13829 5.24477 7.24477 6.13829 6.67552 7.23415Z" fill="#BAC5D2"></path>
  </symbol>
</svg>
